<mxfile host="app.diagrams.net" modified="2023-12-27T12:55:34.120Z" agent="Mozilla/5.0 (Windows NT 10.0; Win64; x64) AppleWebKit/537.36 (KHTML, like Gecko) Chrome/120.0.0.0 Safari/537.36 Edg/120.0.0.0" etag="HSnRQ3IjgSp60W-82L2E" version="22.1.12" type="device">
  <diagram name="Страница — 1" id="ULWvT7EXsEqGmWyhNHuD">
    <mxGraphModel dx="1459" dy="826" grid="1" gridSize="10" guides="1" tooltips="1" connect="1" arrows="1" fold="1" page="1" pageScale="1" pageWidth="827" pageHeight="1169" math="0" shadow="0">
      <root>
        <mxCell id="0" />
        <mxCell id="1" parent="0" />
        <mxCell id="88mA2Wb_MsBH72zTJUVQ-3" value="" style="edgeStyle=orthogonalEdgeStyle;rounded=0;orthogonalLoop=1;jettySize=auto;html=1;" parent="1" source="88mA2Wb_MsBH72zTJUVQ-1" target="88mA2Wb_MsBH72zTJUVQ-2" edge="1">
          <mxGeometry relative="1" as="geometry" />
        </mxCell>
        <mxCell id="88mA2Wb_MsBH72zTJUVQ-1" value="начало" style="ellipse;whiteSpace=wrap;html=1;" parent="1" vertex="1">
          <mxGeometry x="340" y="50" width="120" height="80" as="geometry" />
        </mxCell>
        <mxCell id="thzpxBRZkC2VkFPMq1Rq-8" value="" style="edgeStyle=orthogonalEdgeStyle;rounded=0;orthogonalLoop=1;jettySize=auto;html=1;" edge="1" parent="1" source="88mA2Wb_MsBH72zTJUVQ-2" target="thzpxBRZkC2VkFPMq1Rq-5">
          <mxGeometry relative="1" as="geometry" />
        </mxCell>
        <mxCell id="88mA2Wb_MsBH72zTJUVQ-2" value="f=x*x*x+x*x-x+10" style="rounded=0;whiteSpace=wrap;html=1;" parent="1" vertex="1">
          <mxGeometry x="340" y="160" width="120" height="60" as="geometry" />
        </mxCell>
        <mxCell id="thzpxBRZkC2VkFPMq1Rq-11" value="" style="edgeStyle=orthogonalEdgeStyle;rounded=0;orthogonalLoop=1;jettySize=auto;html=1;" edge="1" parent="1" source="88mA2Wb_MsBH72zTJUVQ-4" target="thzpxBRZkC2VkFPMq1Rq-9">
          <mxGeometry relative="1" as="geometry" />
        </mxCell>
        <mxCell id="88mA2Wb_MsBH72zTJUVQ-4" value="n=trunc((b-a)/h)&lt;br&gt;sum=0" style="rounded=0;whiteSpace=wrap;html=1;" parent="1" vertex="1">
          <mxGeometry x="340" y="340" width="120" height="60" as="geometry" />
        </mxCell>
        <mxCell id="88mA2Wb_MsBH72zTJUVQ-9" value="" style="edgeStyle=orthogonalEdgeStyle;rounded=0;orthogonalLoop=1;jettySize=auto;html=1;" parent="1" source="88mA2Wb_MsBH72zTJUVQ-6" edge="1">
          <mxGeometry relative="1" as="geometry">
            <mxPoint x="400.0526315789473" y="620.0000000000002" as="targetPoint" />
          </mxGeometry>
        </mxCell>
        <mxCell id="88mA2Wb_MsBH72zTJUVQ-6" value="i&amp;gt;n-1" style="rhombus;whiteSpace=wrap;html=1;" parent="1" vertex="1">
          <mxGeometry x="340" y="520" width="120" height="80" as="geometry" />
        </mxCell>
        <mxCell id="thzpxBRZkC2VkFPMq1Rq-14" value="" style="edgeStyle=orthogonalEdgeStyle;rounded=0;orthogonalLoop=1;jettySize=auto;html=1;" edge="1" parent="1">
          <mxGeometry relative="1" as="geometry">
            <mxPoint x="400.0526315789473" y="680.0000000000002" as="sourcePoint" />
            <mxPoint x="400.0526315789473" y="709.9999999999998" as="targetPoint" />
          </mxGeometry>
        </mxCell>
        <mxCell id="88mA2Wb_MsBH72zTJUVQ-11" value="" style="endArrow=classic;html=1;rounded=0;entryX=0.5;entryY=0;entryDx=0;entryDy=0;" parent="1" target="88mA2Wb_MsBH72zTJUVQ-15" edge="1">
          <mxGeometry width="50" height="50" relative="1" as="geometry">
            <mxPoint x="460" y="560" as="sourcePoint" />
            <mxPoint x="510" y="870" as="targetPoint" />
            <Array as="points">
              <mxPoint x="480" y="560" />
              <mxPoint x="480" y="730" />
              <mxPoint x="480" y="900" />
              <mxPoint x="400" y="900" />
            </Array>
          </mxGeometry>
        </mxCell>
        <mxCell id="88mA2Wb_MsBH72zTJUVQ-21" value="" style="edgeStyle=orthogonalEdgeStyle;rounded=0;orthogonalLoop=1;jettySize=auto;html=1;" parent="1" source="88mA2Wb_MsBH72zTJUVQ-15" edge="1">
          <mxGeometry relative="1" as="geometry">
            <mxPoint x="400" y="1010" as="targetPoint" />
          </mxGeometry>
        </mxCell>
        <mxCell id="88mA2Wb_MsBH72zTJUVQ-15" value="ввод a,b,h" style="shape=parallelogram;perimeter=parallelogramPerimeter;whiteSpace=wrap;html=1;fixedSize=1;" parent="1" vertex="1">
          <mxGeometry x="340" y="930" width="120" height="60" as="geometry" />
        </mxCell>
        <mxCell id="88mA2Wb_MsBH72zTJUVQ-18" value="да" style="text;html=1;strokeColor=none;fillColor=none;align=center;verticalAlign=middle;whiteSpace=wrap;rounded=0;" parent="1" vertex="1">
          <mxGeometry x="390" y="590" width="60" height="30" as="geometry" />
        </mxCell>
        <mxCell id="88mA2Wb_MsBH72zTJUVQ-19" value="нет" style="text;html=1;strokeColor=none;fillColor=none;align=center;verticalAlign=middle;whiteSpace=wrap;rounded=0;" parent="1" vertex="1">
          <mxGeometry x="430" y="530" width="60" height="30" as="geometry" />
        </mxCell>
        <mxCell id="88mA2Wb_MsBH72zTJUVQ-24" value="" style="edgeStyle=orthogonalEdgeStyle;rounded=0;orthogonalLoop=1;jettySize=auto;html=1;" parent="1" target="88mA2Wb_MsBH72zTJUVQ-23" edge="1">
          <mxGeometry relative="1" as="geometry">
            <mxPoint x="400" y="1070" as="sourcePoint" />
          </mxGeometry>
        </mxCell>
        <mxCell id="88mA2Wb_MsBH72zTJUVQ-26" value="" style="edgeStyle=orthogonalEdgeStyle;rounded=0;orthogonalLoop=1;jettySize=auto;html=1;" parent="1" source="88mA2Wb_MsBH72zTJUVQ-23" edge="1">
          <mxGeometry relative="1" as="geometry">
            <mxPoint x="400" y="1170" as="targetPoint" />
          </mxGeometry>
        </mxCell>
        <mxCell id="88mA2Wb_MsBH72zTJUVQ-23" value="вывод integral" style="shape=parallelogram;perimeter=parallelogramPerimeter;whiteSpace=wrap;html=1;fixedSize=1;" parent="1" vertex="1">
          <mxGeometry x="340" y="1090" width="120" height="60" as="geometry" />
        </mxCell>
        <mxCell id="88mA2Wb_MsBH72zTJUVQ-28" value="" style="edgeStyle=orthogonalEdgeStyle;rounded=0;orthogonalLoop=1;jettySize=auto;html=1;" parent="1" target="88mA2Wb_MsBH72zTJUVQ-27" edge="1">
          <mxGeometry relative="1" as="geometry">
            <mxPoint x="400" y="1230" as="sourcePoint" />
          </mxGeometry>
        </mxCell>
        <mxCell id="88mA2Wb_MsBH72zTJUVQ-30" value="" style="edgeStyle=orthogonalEdgeStyle;rounded=0;orthogonalLoop=1;jettySize=auto;html=1;" parent="1" source="88mA2Wb_MsBH72zTJUVQ-27" target="88mA2Wb_MsBH72zTJUVQ-29" edge="1">
          <mxGeometry relative="1" as="geometry" />
        </mxCell>
        <mxCell id="88mA2Wb_MsBH72zTJUVQ-27" value="вывод error" style="shape=parallelogram;perimeter=parallelogramPerimeter;whiteSpace=wrap;html=1;fixedSize=1;" parent="1" vertex="1">
          <mxGeometry x="340" y="1250" width="120" height="60" as="geometry" />
        </mxCell>
        <mxCell id="88mA2Wb_MsBH72zTJUVQ-32" value="" style="edgeStyle=orthogonalEdgeStyle;rounded=0;orthogonalLoop=1;jettySize=auto;html=1;" parent="1" source="88mA2Wb_MsBH72zTJUVQ-29" target="88mA2Wb_MsBH72zTJUVQ-31" edge="1">
          <mxGeometry relative="1" as="geometry" />
        </mxCell>
        <mxCell id="88mA2Wb_MsBH72zTJUVQ-29" value="ввод choice" style="shape=parallelogram;perimeter=parallelogramPerimeter;whiteSpace=wrap;html=1;fixedSize=1;" parent="1" vertex="1">
          <mxGeometry x="340" y="1330" width="120" height="60" as="geometry" />
        </mxCell>
        <mxCell id="88mA2Wb_MsBH72zTJUVQ-34" value="" style="edgeStyle=orthogonalEdgeStyle;rounded=0;orthogonalLoop=1;jettySize=auto;html=1;" parent="1" source="88mA2Wb_MsBH72zTJUVQ-31" target="88mA2Wb_MsBH72zTJUVQ-33" edge="1">
          <mxGeometry relative="1" as="geometry" />
        </mxCell>
        <mxCell id="88mA2Wb_MsBH72zTJUVQ-36" value="" style="edgeStyle=orthogonalEdgeStyle;rounded=0;orthogonalLoop=1;jettySize=auto;html=1;" parent="1" source="88mA2Wb_MsBH72zTJUVQ-31" target="88mA2Wb_MsBH72zTJUVQ-35" edge="1">
          <mxGeometry relative="1" as="geometry" />
        </mxCell>
        <mxCell id="88mA2Wb_MsBH72zTJUVQ-44" value="" style="edgeStyle=orthogonalEdgeStyle;rounded=0;orthogonalLoop=1;jettySize=auto;html=1;" parent="1" source="88mA2Wb_MsBH72zTJUVQ-31" target="88mA2Wb_MsBH72zTJUVQ-43" edge="1">
          <mxGeometry relative="1" as="geometry" />
        </mxCell>
        <mxCell id="88mA2Wb_MsBH72zTJUVQ-31" value="cравнить choise" style="rhombus;whiteSpace=wrap;html=1;" parent="1" vertex="1">
          <mxGeometry x="340" y="1410" width="120" height="80" as="geometry" />
        </mxCell>
        <mxCell id="88mA2Wb_MsBH72zTJUVQ-40" value="" style="edgeStyle=orthogonalEdgeStyle;rounded=0;orthogonalLoop=1;jettySize=auto;html=1;" parent="1" source="88mA2Wb_MsBH72zTJUVQ-33" edge="1">
          <mxGeometry relative="1" as="geometry">
            <mxPoint x="560" y="1510" as="targetPoint" />
          </mxGeometry>
        </mxCell>
        <mxCell id="88mA2Wb_MsBH72zTJUVQ-33" value="choise=2" style="rounded=0;whiteSpace=wrap;html=1;" parent="1" vertex="1">
          <mxGeometry x="500" y="1420" width="120" height="60" as="geometry" />
        </mxCell>
        <mxCell id="88mA2Wb_MsBH72zTJUVQ-38" value="" style="edgeStyle=orthogonalEdgeStyle;rounded=0;orthogonalLoop=1;jettySize=auto;html=1;" parent="1" source="88mA2Wb_MsBH72zTJUVQ-35" edge="1">
          <mxGeometry relative="1" as="geometry">
            <mxPoint x="240" y="1510" as="targetPoint" />
          </mxGeometry>
        </mxCell>
        <mxCell id="88mA2Wb_MsBH72zTJUVQ-35" value="choise=1" style="rounded=0;whiteSpace=wrap;html=1;" parent="1" vertex="1">
          <mxGeometry x="180" y="1420" width="120" height="60" as="geometry" />
        </mxCell>
        <mxCell id="88mA2Wb_MsBH72zTJUVQ-41" value="" style="endArrow=none;html=1;rounded=0;" parent="1" edge="1">
          <mxGeometry width="50" height="50" relative="1" as="geometry">
            <mxPoint x="400" y="1320" as="sourcePoint" />
            <mxPoint x="180" y="1540" as="targetPoint" />
            <Array as="points">
              <mxPoint x="160" y="1320" />
              <mxPoint x="160" y="1540" />
            </Array>
          </mxGeometry>
        </mxCell>
        <mxCell id="88mA2Wb_MsBH72zTJUVQ-42" value="" style="endArrow=none;html=1;rounded=0;entryX=1;entryY=0.5;entryDx=0;entryDy=0;" parent="1" edge="1">
          <mxGeometry width="50" height="50" relative="1" as="geometry">
            <mxPoint x="400" y="1320" as="sourcePoint" />
            <mxPoint x="620" y="1540" as="targetPoint" />
            <Array as="points">
              <mxPoint x="640" y="1320" />
              <mxPoint x="640" y="1540" />
            </Array>
          </mxGeometry>
        </mxCell>
        <mxCell id="88mA2Wb_MsBH72zTJUVQ-48" value="" style="edgeStyle=orthogonalEdgeStyle;rounded=0;orthogonalLoop=1;jettySize=auto;html=1;" parent="1" source="88mA2Wb_MsBH72zTJUVQ-43" edge="1">
          <mxGeometry relative="1" as="geometry">
            <mxPoint x="400" y="1590" as="targetPoint" />
          </mxGeometry>
        </mxCell>
        <mxCell id="88mA2Wb_MsBH72zTJUVQ-43" value="choise=3" style="rounded=0;whiteSpace=wrap;html=1;" parent="1" vertex="1">
          <mxGeometry x="340" y="1510" width="120" height="60" as="geometry" />
        </mxCell>
        <mxCell id="88mA2Wb_MsBH72zTJUVQ-46" value="конец" style="ellipse;whiteSpace=wrap;html=1;" parent="1" vertex="1">
          <mxGeometry x="340" y="1590" width="120" height="80" as="geometry" />
        </mxCell>
        <mxCell id="thzpxBRZkC2VkFPMq1Rq-1" value="calculateError()" style="shape=process;whiteSpace=wrap;html=1;backgroundOutline=1;" vertex="1" parent="1">
          <mxGeometry x="180" y="1510" width="120" height="60" as="geometry" />
        </mxCell>
        <mxCell id="thzpxBRZkC2VkFPMq1Rq-2" value="calculateIntegral()" style="shape=process;whiteSpace=wrap;html=1;backgroundOutline=1;" vertex="1" parent="1">
          <mxGeometry x="500" y="1510" width="120" height="60" as="geometry" />
        </mxCell>
        <mxCell id="thzpxBRZkC2VkFPMq1Rq-3" value="error=(1/3)*(integral-trapezoidalRule&lt;br&gt;(a,b,h/2)" style="shape=process;whiteSpace=wrap;html=1;backgroundOutline=1;" vertex="1" parent="1">
          <mxGeometry x="340" y="1170" width="120" height="60" as="geometry" />
        </mxCell>
        <mxCell id="thzpxBRZkC2VkFPMq1Rq-4" value="integral=&lt;br&gt;trapezoidalRule&lt;br&gt;(a,b,h)" style="shape=process;whiteSpace=wrap;html=1;backgroundOutline=1;" vertex="1" parent="1">
          <mxGeometry x="340" y="1010" width="120" height="60" as="geometry" />
        </mxCell>
        <mxCell id="thzpxBRZkC2VkFPMq1Rq-7" value="" style="edgeStyle=orthogonalEdgeStyle;rounded=0;orthogonalLoop=1;jettySize=auto;html=1;" edge="1" parent="1" source="thzpxBRZkC2VkFPMq1Rq-5">
          <mxGeometry relative="1" as="geometry">
            <mxPoint x="400" y="340" as="targetPoint" />
          </mxGeometry>
        </mxCell>
        <mxCell id="thzpxBRZkC2VkFPMq1Rq-5" value="trapezoidalRule&lt;br&gt;(a,b,h:real)" style="shape=process;whiteSpace=wrap;html=1;backgroundOutline=1;" vertex="1" parent="1">
          <mxGeometry x="340" y="250" width="120" height="60" as="geometry" />
        </mxCell>
        <mxCell id="thzpxBRZkC2VkFPMq1Rq-10" value="" style="edgeStyle=orthogonalEdgeStyle;rounded=0;orthogonalLoop=1;jettySize=auto;html=1;entryX=0.5;entryY=0;entryDx=0;entryDy=0;" edge="1" parent="1" source="thzpxBRZkC2VkFPMq1Rq-9" target="88mA2Wb_MsBH72zTJUVQ-6">
          <mxGeometry relative="1" as="geometry" />
        </mxCell>
        <mxCell id="thzpxBRZkC2VkFPMq1Rq-9" value="i=1" style="rounded=0;whiteSpace=wrap;html=1;" vertex="1" parent="1">
          <mxGeometry x="340" y="430" width="120" height="60" as="geometry" />
        </mxCell>
        <mxCell id="thzpxBRZkC2VkFPMq1Rq-15" value="" style="edgeStyle=orthogonalEdgeStyle;rounded=0;orthogonalLoop=1;jettySize=auto;html=1;" edge="1" parent="1" target="thzpxBRZkC2VkFPMq1Rq-12">
          <mxGeometry relative="1" as="geometry">
            <mxPoint x="400.0526315789473" y="769.9999999999998" as="sourcePoint" />
            <mxPoint x="400" y="850" as="targetPoint" />
          </mxGeometry>
        </mxCell>
        <mxCell id="thzpxBRZkC2VkFPMq1Rq-12" value="i=i+1" style="rounded=0;whiteSpace=wrap;html=1;" vertex="1" parent="1">
          <mxGeometry x="340" y="800" width="120" height="60" as="geometry" />
        </mxCell>
        <mxCell id="thzpxBRZkC2VkFPMq1Rq-16" value="" style="endArrow=none;html=1;rounded=0;entryX=0.5;entryY=1;entryDx=0;entryDy=0;" edge="1" parent="1" target="thzpxBRZkC2VkFPMq1Rq-12">
          <mxGeometry width="50" height="50" relative="1" as="geometry">
            <mxPoint x="400" y="500" as="sourcePoint" />
            <mxPoint x="280" y="840" as="targetPoint" />
            <Array as="points">
              <mxPoint x="320" y="500" />
              <mxPoint x="320" y="610" />
              <mxPoint x="320" y="880" />
              <mxPoint x="400" y="880" />
            </Array>
          </mxGeometry>
        </mxCell>
        <mxCell id="thzpxBRZkC2VkFPMq1Rq-17" value="sum=&lt;br&gt;sum+f(a+i*h)" style="shape=process;whiteSpace=wrap;html=1;backgroundOutline=1;" vertex="1" parent="1">
          <mxGeometry x="340" y="620" width="120" height="60" as="geometry" />
        </mxCell>
        <mxCell id="thzpxBRZkC2VkFPMq1Rq-18" value="trapezoidalRule=&lt;br&gt;h/2*(f(a)+2*sum+f(b))" style="shape=process;whiteSpace=wrap;html=1;backgroundOutline=1;" vertex="1" parent="1">
          <mxGeometry x="340" y="710" width="120" height="60" as="geometry" />
        </mxCell>
      </root>
    </mxGraphModel>
  </diagram>
</mxfile>
